HIERARCHY
ROOT pelvis
{
  OFFSET 0 100 0
  CHANNELS 6 Xposition Yposition Zposition Zrotation Xrotation Yrotation
  JOINT pelvis_right_femur
  {
    OFFSET -10.78128 -3.44521 -0.5502486
    CHANNELS 3 Zrotation Xrotation Yrotation
    JOINT right_femur_tibia
    {
      OFFSET -0.8047443 -44.0398 -0.1307829
      CHANNELS 3 Zrotation Xrotation Yrotation
      JOINT right_tibia_foot
      {
        OFFSET 3.006224 -47.83518 -5
        CHANNELS 3 Zrotation Xrotation Yrotation
        End Site
        {
          OFFSET 0 -5 15
        }
      }
    }
  }
  JOINT pelvis_left_femur
  {
    OFFSET 10.78128 -3.44521 -0.5502486
    CHANNELS 3 Zrotation Xrotation Yrotation
    JOINT left_femur_tibia
    {
      OFFSET 0.8047443 -44.0398 -0.1307829
      CHANNELS 3 Zrotation Xrotation Yrotation
      JOINT left_tibia_foot
      {
        OFFSET -4.370144 -48.10324 -4.275266
        CHANNELS 3 Zrotation Xrotation Yrotation
        End Site
        {
          OFFSET 0 -5 15
        }
      }
    }
  }
  JOINT pelvis_spine1
  {
    OFFSET 0 6.468898 -3.129235
    CHANNELS 3 Zrotation Xrotation Yrotation
    JOINT spine1
    {
      OFFSET 0 23.15396 4.99043
      CHANNELS 3 Zrotation Xrotation Yrotation
      JOINT spine2
      {
        OFFSET 0 20.79997 -5.064912
        CHANNELS 3 Zrotation Xrotation Yrotation
        JOINT neck
        {
          OFFSET 0 14.38658 9.616178
          CHANNELS 3 Zrotation Xrotation Yrotation
          End Site
          {
            OFFSET 0 20 0
          }
        }
      }
      JOINT right_manubrium
      {
        OFFSET -5.722621 16.35077 3.967754
        CHANNELS 3 Zrotation Xrotation Yrotation
        JOINT right_clavicle
        {
          OFFSET -13.16364 1.694482 -4.693211
          CHANNELS 3 Zrotation Xrotation Yrotation
          JOINT right_humerus
          {
            OFFSET -28.5034 -0.3100689 -2.792744
            CHANNELS 3 Zrotation Xrotation Yrotation
            JOINT right_radius
            {
              OFFSET -25.15693 0.02248979 -1.271978
              CHANNELS 3 Zrotation Xrotation Yrotation
              End Site
              {
                OFFSET -15 0 0
              }
            }
          }
        }
      }
      JOINT left_manubrium
      {
        OFFSET 5.722621 16.35077 3.967754
        CHANNELS 3 Zrotation Xrotation Yrotation
        JOINT left_clavicle
        {
          OFFSET 13.16364 1.694482 -4.693211
          CHANNELS 3 Zrotation Xrotation Yrotation
          JOINT left_humerus
          {
            OFFSET 29.39168 -1.063119 -2.237045
            CHANNELS 3 Zrotation Xrotation Yrotation
            JOINT left_radius
            {
              OFFSET 24.59957 -0.9528479 0.9047498
              CHANNELS 3 Zrotation Xrotation Yrotation
              End Site
              {
                OFFSET 15 -0 -0
              }
            }
          }
        }
      }
    }
  }
}
MOTION
Frames: 19
Frame Time: 0.0416666666667
356.754 99.69508 3024.143 0.8714806 -7.304263 9.42496 6.469674 -1.323868 3.477429 -0 15.47087 -0 -5.950079 -7.241141 -4.852478 -1.579587 -5.147303 -5.949214 -0 58.82454 -0 -6.350366 -4.464284 15.26813 1.275004 -2.707061 4.824248 0.7185977 15.0352 -7.141323 1.527628 21.94308 3.498614 1.279055 -21.39497 5.87494 -4.972282 -25.11085 11.59938 96.64601 15.40039 -19.77736 -0 0 14.68333 -18.5289 8.6993 7.589803 4.849329 -26.10186 -7.874885 -89.99491 13.90952 22.96639 0 0 -19.60515 12.47708 15.54265 -1.949615
357.7159 100.4548 3030.018 0.7757376 -7.004759 8.520245 6.195948 3.438403 3.306709 -0 13.29463 -0 -5.998878 -9.78566 -4.007099 -0.7063413 -10.38868 -5.586751 -0 53.01313 -0 -5.80405 -4.064955 16.27784 1.37464 -2.744375 5.531517 0.4043069 15.18055 -6.541027 1.521534 21.88474 3.305777 1.212379 -21.42483 5.690648 -5.079952 -26.34103 11.64022 95.65433 15.33817 -17.80977 -0 0 16.96547 -19.02066 8.616177 8.278407 4.510938 -25.25648 -7.700583 -91.54658 13.77233 26.04883 0 0 -16.91274 11.71665 15.677 -0.928162
358.7838 100.6579 3035.804 0.7465818 -6.58562 7.639918 5.662627 7.506959 2.991848 -0 11.64896 -0 -5.82768 -11.90644 -3.12399 0.02331565 -14.99443 -5.321349 -0 44.54105 -0 -5.057123 -4.357216 17.26285 1.453098 -2.756445 6.213532 0.09145406 15.28555 -5.944859 1.523067 21.83673 3.128225 1.149305 -21.41318 5.52374 -5.149726 -27.47519 11.67345 94.65879 15.28882 -15.8709 -0 0 19.16338 -19.53704 8.559672 8.97215 4.182067 -24.39172 -7.507878 -93.04895 13.62063 28.95017 0 0 -14.29769 10.88858 15.7524 0.1697727
359.9797 100.2837 3041.541 0.7901578 -6.194598 6.834486 4.982824 11.06588 2.623086 -0 10.68817 -0 -5.472497 -13.48323 -2.282602 0.6325958 -18.98546 -5.052207 -0 35.20487 -0 -4.285534 -4.98113 18.15973 1.491267 -2.728762 6.848632 -0.2164638 15.32998 -5.358222 1.53419 21.80585 2.981953 1.102766 -21.32779 5.382203 -5.145658 -28.43832 11.70087 93.63422 15.30095 -13.97927 -0 0 21.20181 -20.10714 8.553066 9.678419 3.878518 -23.50621 -7.290271 -94.42941 13.47242 31.53206 0 0 -11.80499 10.00929 15.73466 1.312245
361.3127 99.41709 3047.299 0.9094328 -5.976714 6.140788 4.229166 14.12898 2.26332 -0 10.71817 -0 -4.954885 -14.28498 -1.589158 1.111308 -22.20051 -4.705446 -0 26.622 -0 -3.666473 -5.672328 18.87333 1.482534 -2.660188 7.402985 -0.5039273 15.30849 -4.809456 1.554689 21.79501 2.877308 1.078662 -21.16474 5.273775 -5.059258 -29.16984 11.72337 92.61509 15.38723 -12.22123 -0 0 22.97054 -20.71413 8.601181 10.36808 3.617643 -22.64094 -7.057668 -95.60196 13.35598 33.64993 0 0 -9.556292 9.130716 15.61683 2.430231
362.7736 98.25792 3053.163 1.104807 -6.06035 5.593305 3.438085 16.54329 2.005546 -0 12.36093 -0 -4.299427 -14.0333 -1.177783 1.35763 -24.29918 -4.337824 -0 20.27363 -0 -3.339478 -6.250528 19.323 1.428236 -2.557226 7.839349 -0.7502027 15.22521 -4.337043 1.58289 21.80451 2.820701 1.078453 -20.93719 5.205086 -4.898389 -29.62354 11.74024 91.66538 15.54608 -10.71503 -0 0 24.35062 -21.31589 8.699403 10.99398 3.41671 -21.85679 -6.828497 -96.48173 13.30589 35.17178 0 0 -7.704154 8.319863 15.4114 3.439822
364.3372 97.09515 3059.202 1.372165 -6.503693 5.229813 2.613381 18.09492 1.948532 -0 16.23881 -0 -3.536557 -12.57179 -1.156341 1.214655 -24.95488 -4.124914 -0 17.04542 -0 -3.349276 -6.646628 19.48972 1.333785 -2.428788 8.132958 -0.9394408 15.08939 -3.970562 1.616319 21.83272 2.814349 1.101478 -20.66384 5.178887 -4.676684 -29.77996 11.75019 90.83896 15.77501 -9.55192 -0 0 25.26376 -21.87183 8.84021 11.51686 3.287407 -21.20385 -6.619631 -97.01554 13.3481 36.02514 0 0 -6.358001 7.632696 15.14071 4.272467
365.9731 96.22677 3065.438 1.701424 -7.242785 5.089379 1.747686 18.60928 2.127383 -0 22.46382 -0 -2.696311 -10.01309 -1.540529 0.5850857 -24.05273 -4.244471 -0 16.7247 -0 -3.612138 -6.937757 19.42911 1.206491 -2.283671 8.274138 -1.063099 14.91216 -3.726159 1.652315 21.8769 2.856922 1.145787 -20.36376 5.194299 -4.408906 -29.64455 11.75185 90.17048 16.07161 -8.78218 -0 0 25.68034 -22.35127 9.015512 11.91216 3.234654 -20.71292 -6.442796 -97.18602 13.49216 36.19789 0 0 -5.569494 7.104678 14.82961 4.885967
367.656 95.86637 3071.83 2.073933 -8.098285 5.202543 0.8591308 17.97752 2.483605 -0 30.42277 -0 -1.820665 -6.74566 -2.241824 -0.4898058 -21.72235 -4.778397 -0 18.13261 -0 -3.948604 -7.312967 19.24059 1.055141 -2.13134 8.254212 -1.113063 14.70553 -3.619764 1.688039 21.93377 2.946176 1.208481 -20.05854 5.250144 -4.112254 -29.22714 11.74322 89.70073 16.42967 -8.458302 -0 0 25.57455 -22.72 9.216132 12.15356 3.26271 -20.41535 -6.309586 -96.98111 13.73501 35.68147 0 0 -5.389328 6.76812 14.50498 5.242372
369.3679 96.09114 3078.274 2.457209 -8.84129 5.578265 0.0152326 16.1124 2.901408 -0 38.9962 -0 -0.9890042 -3.30009 -3.113944 -1.858974 -18.20562 -5.714741 -0 19.85184 -0 -4.163758 -7.97522 19.0178 0.8933464 -1.985847 8.060172 -1.077809 14.48717 -3.674858 1.719682 21.99864 3.07783 1.284489 -19.77985 5.344887 -3.813944 -28.54346 11.72209 89.49887 16.82812 -8.660296 -0 0 24.9085 -22.92695 9.426808 12.20083 3.377098 -20.35842 -6.236817 -96.38596 14.05602 34.45969 0 0 -5.894117 6.668462 14.20283 5.288856
371.09 96.8377 3084.636 2.797512 -9.259998 6.192071 -0.6681811 12.92877 3.250817 -0 46.80814 -0 -0.3295894 -0.2127914 -3.996073 -3.316752 -13.75454 -6.972924 -0 20.84618 -0 -4.117601 -9.054301 18.81184 0.7430811 -1.867984 7.6915 -0.9497668 14.28532 -3.908853 1.7424 22.0637 3.239633 1.364274 -19.57132 5.471822 -3.556885 -27.6477 11.68823 89.6464 17.21569 -9.450475 -0 0 23.68714 -22.91481 9.620769 12.01443 3.575686 -20.58808 -6.243373 -95.42421 14.40359 32.58503 0 0 -7.123846 6.849831 13.96986 4.978327
372.7952 97.92608 3090.792 3.020175 -9.205555 6.981429 -1.057991 8.41497 3.41649 -0 52.3852 -0 0.001375816 2.057006 -4.733909 -4.636598 -8.654597 -8.40737 -0 20.66081 -0 -3.762397 -10.56228 18.62026 0.62944 -1.799019 7.174528 -0.7343031 14.13189 -4.315114 1.752361 22.1198 3.410732 1.4349 -19.47343 5.617856 -3.388807 -26.63938 11.64493 90.1926 17.51541 -10.81145 -0 0 22.00273 -22.6504 9.765104 11.58273 3.841473 -21.11648 -6.340306 -94.1849 14.70632 30.22395 0 0 -9.015411 7.323006 13.84634 4.308997
374.445 99.10588 3096.667 3.051986 -8.636218 7.857823 -1.062823 2.735515 3.327282 -0 54.47753 -0 -0.1157118 3.230999 -5.21637 -5.619236 -3.261348 -9.819427 -0 19.39224 -0 -3.15903 -12.38819 18.39059 0.5676471 -1.789502 6.551662 -0.448076 14.04541 -4.863932 1.748961 22.16107 3.571723 1.486207 -19.5021 5.769918 -3.337535 -25.61575 11.59756 91.12287 17.65996 -12.64426 -0 0 19.99621 -22.14455 9.836738 10.9315 4.149318 -21.91126 -6.523799 -92.78483 14.91008 27.58326 0 0 -11.42501 8.054254 13.84313 3.333157
375.9979 100.1175 3102.266 2.859853 -7.640891 8.733605 -0.6883747 -3.72963 2.967155 -0 52.50004 -0 -0.6849062 3.318332 -5.421497 -6.153395 2.034468 -10.98947 -0 17.49212 -0 -2.463221 -14.34283 18.03464 0.5540399 -1.833134 5.860172 -0.1107228 14.01996 -5.516824 1.7347 22.18791 3.716014 1.51735 -19.64017 5.921689 -3.393071 -24.62022 11.55075 92.36076 17.63061 -14.81395 -0 0 17.78607 -21.44768 9.834994 10.11268 4.479144 -22.90989 -6.775247 -91.31081 14.99836 24.80185 0 0 -14.19752 8.98262 13.93468 2.129868
377.4223 100.7441 3107.669 2.474376 -6.407808 9.544032 -0.04678454 -10.43748 2.35129 -0 46.73463 -0 -1.574313 2.608539 -5.415071 -6.243679 6.871886 -11.71748 -0 15.45481 -0 -1.871306 -16.2318 17.46029 0.5694187 -1.910429 5.128029 0.2580652 14.03055 -6.232945 1.713401 22.20551 3.849933 1.53701 -19.84633 6.072752 -3.512976 -23.64508 11.50735 93.78816 17.46301 -17.17579 -0 0 15.45563 -20.63536 9.77984 9.192925 4.819706 -24.03385 -7.065784 -89.81228 14.97872 21.94011 0 0 -17.18638 10.03789 14.07225 0.7817523
378.7099 100.8406 3113.018 1.981194 -5.164473 10.25198 0.683978 -16.75709 1.499833 -0 38.1902 -0 -2.570853 1.543895 -5.298589 -5.987416 10.94294 -11.85452 -0 13.65265 -0 -1.559639 -17.88724 16.61046 0.5927194 -1.999626 4.389086 0.6347061 14.05129 -6.964053 1.688565 22.21918 3.980874 1.555932 -20.07507 6.221296 -3.648976 -22.68603 11.46948 95.26761 17.21643 -19.56556 -0 0 13.10589 -19.79327 9.697446 8.249183 5.159736 -25.19278 -7.363168 -88.34562 14.86343 19.0763 0 0 -20.21512 11.143 14.20863 -0.6224788
379.8824 100.3556 3118.478 1.495308 -4.136212 10.84313 1.325591 -22.0202 0.4628473 -0 28.43011 -0 -3.453545 0.5763228 -5.165439 -5.533544 13.99213 -11.34556 -0 12.45495 -0 -1.641443 -19.14027 15.50344 0.6152914 -2.088105 3.69663 0.9896875 14.07284 -7.652117 1.662622 22.22998 4.1043 1.577192 -20.29757 6.358083 -3.776529 -21.79538 11.43953 96.66543 16.93425 -21.79283 -0 0 10.90381 -18.99896 9.603542 7.361539 5.47727 -26.29023 -7.640113 -87.01182 14.67143 16.40098 0 0 -23.051 12.21055 14.32199 -1.975827
380.9847 99.36293 3124.194 1.127642 -3.511139 11.32037 1.783681 -25.64144 -0.6027287 -0 19.43021 -0 -4.059527 0.04644565 -5.091963 -5.044981 15.87724 -10.3066 -0 12.42482 -0 -2.124554 -19.80452 14.26872 0.6444511 -2.176009 3.11601 1.293045 14.10527 -8.23959 1.637177 22.23414 4.20195 1.592719 -20.50943 6.468111 -3.904242 -21.07993 11.41984 97.87534 16.62733 -23.67122 -0 0 9.060411 -18.30529 9.497494 6.598271 5.740046 -27.2395 -7.880438 -85.93766 14.44255 14.19735 0 0 -25.44562 13.14976 14.42271 -3.158525
382.0663 98.07933 3130.239 0.9427679 -3.38475 11.69633 2.112939 -27.3416 -1.413299 -0 13.04802 -0 -4.343275 0.06916048 -5.135937 -4.651482 16.65347 -9.041197 -0 14.28241 -0 -2.896087 -19.72587 13.12521 0.692481 -2.268576 2.697918 1.524004 14.1633 -8.68689 1.61367 22.22721 4.254524 1.590558 -20.71792 6.53921 -4.053525 -20.63721 11.41122 98.8336 16.29333 -25.07442 -0 0 7.741951 -17.73745 9.372922 6.001504 5.92008 -27.98271 -8.078318 -85.21238 14.23273 12.70125 0 0 -27.22262 13.88786 14.53505 -4.07075
